<?xml version="1.0" encoding="utf-8"?>
<!-- Generator: Adobe Illustrator 22.0.1, SVG Export Plug-In . SVG Version: 6.00 Build 0)  -->
<svg version="1.1" id="Laag_1" xmlns="http://www.w3.org/2000/svg" xmlns:xlink="http://www.w3.org/1999/xlink" x="0px" y="0px"
	 viewBox="0 0 207.3 205.9" style="enable-background:new 0 0 207.3 205.9;" xml:space="preserve">
<style type="text/css">
	.st0{fill:#A9BF59;}
	.st1{fill:none;stroke:#A9BF59;stroke-width:3.1405;stroke-linecap:round;stroke-linejoin:round;stroke-miterlimit:10;}
	.st2{fill:none;stroke:#FFFFFF;stroke-width:3.1405;stroke-linecap:round;stroke-linejoin:round;stroke-miterlimit:10;}
	.st3{fill:#FFFFFF;}
	.st4{opacity:0.77;}
	.st5{fill:#A0C050;}
	.st6{fill:#7E9840;}
	.st7{fill:none;stroke:#7E9840;stroke-width:0.75;stroke-linecap:round;stroke-miterlimit:10;}
	.st8{fill:none;stroke:#7E9840;stroke-width:0.75;stroke-linecap:round;stroke-miterlimit:10;stroke-dasharray:1.9882,1.9882;}
	.st9{fill:none;stroke:#7E9840;stroke-width:0.75;stroke-linecap:round;stroke-miterlimit:10;stroke-dasharray:1.9844,1.9844;}
	.st10{fill:#FFFFFF;stroke:#000000;stroke-width:0.7845;stroke-miterlimit:10;}
	.st11{fill:none;stroke:#A0C050;stroke-width:2.4637;stroke-linecap:round;stroke-linejoin:round;stroke-miterlimit:10;}
	.st12{fill:none;stroke:#FFFFFF;stroke-width:2.4637;stroke-linecap:round;stroke-linejoin:round;stroke-miterlimit:10;}
	.st13{fill:none;stroke:#FFFFFF;stroke-width:4.2133;stroke-linecap:round;stroke-linejoin:round;stroke-miterlimit:10;}
	.st14{fill:none;stroke:#7E9840;stroke-width:1.0062;stroke-linecap:round;stroke-miterlimit:10;}
	.st15{fill:none;stroke:#7E9840;stroke-width:1.0062;stroke-linecap:round;stroke-miterlimit:10;stroke-dasharray:2.6673,2.6673;}
	.st16{fill:none;stroke:#7E9840;stroke-width:1.0062;stroke-linecap:round;stroke-miterlimit:10;stroke-dasharray:2.6623,2.6623;}
	.st17{fill:#FFFFFF;stroke:#000000;stroke-width:0.7798;stroke-miterlimit:10;}
	.st18{fill:none;stroke:#A0C050;stroke-width:3.3658;stroke-linecap:round;stroke-linejoin:round;stroke-miterlimit:10;}
	.st19{fill:none;stroke:#312783;stroke-width:2.4488;stroke-linecap:round;stroke-linejoin:round;stroke-miterlimit:10;}
	.st20{fill:#312783;}
	.st21{fill:none;stroke:#A0C050;stroke-width:2.4488;stroke-linecap:round;stroke-linejoin:round;stroke-miterlimit:10;}
	.st22{fill:none;stroke:#A0C050;stroke-width:1.5595;stroke-linecap:round;stroke-linejoin:round;stroke-miterlimit:10;}
	.st23{fill:none;stroke:#A0C050;stroke-width:2.4378;stroke-linecap:round;stroke-linejoin:round;stroke-miterlimit:10;}
	.st24{fill:#E94753;}
	.st25{fill:none;stroke:#A0C050;stroke-width:4.3165;stroke-linecap:round;stroke-linejoin:round;stroke-miterlimit:10;}
	.st26{fill:none;stroke:#A0C050;stroke-width:3.1615;stroke-linecap:round;stroke-linejoin:round;stroke-miterlimit:10;}
	.st27{fill:none;stroke:#951B81;stroke-width:3.1405;stroke-linecap:round;stroke-linejoin:round;stroke-miterlimit:10;}
	.st28{fill:#951B81;}
	.st29{fill:none;stroke:#A0C050;stroke-width:3.1391;stroke-linecap:round;stroke-linejoin:round;stroke-miterlimit:10;}
	.st30{fill:none;stroke:#A0C050;stroke-width:3.1405;stroke-linecap:round;stroke-linejoin:round;stroke-miterlimit:10;}
	.st31{fill:none;stroke:#A0C050;stroke-width:2;stroke-linecap:round;stroke-linejoin:round;stroke-miterlimit:10;}
</style>
<g>
	<path class="st30" d="M124.9,97.3l11.3,11.3c7.7,7.7,7.7,20.1,0,27.8v0c-7.7,7.7-20.1,7.7-27.8,0l-5.8-5.8
		c-4.1,6.6-9.9,11.5-17.9,11.5l0,0c-10.8,0-19.6-8.8-19.6-19.6V62.7c0-10.8,8.8-19.6,19.6-19.6l0,0c7.9,0,13.5,5.4,17.9,11.5
		l5.8-5.8c7.7-7.7,20.1-7.7,27.8,0v0c7.7,7.7,7.7,20.1,0,27.8l-16,16c0,0-13.3,14.2-15.5,15.5c-1.6,1.1-3.6,1.7-5.8,1.7
		c-5.3-0.2-9.5-4.7-9.3-10c0.1-3.5,2.1-6.5,5-8.1c-2.7-1.8-4.5-4.9-4.4-8.4c0.2-5.3,4.7-9.5,10-9.3c2.2,0.1,4.1,0.9,5.7,2.1
		c1.5,1,6.1,7.2,10.1,11.5"/>
	<g>
		<path class="st5" d="M90.5,161.8c0,0.1,0,0.2,0,0.2c0,0.2-0.1,0.4-0.2,0.5c-0.2,0.1-0.3,0.2-0.5,0.2c-0.1,0-0.2,0-0.3-0.1
			c-0.1,0-0.2-0.1-0.2-0.2l-2.4-3.2l-1.1,1v1.8c0,0.2-0.1,0.4-0.2,0.5s-0.3,0.2-0.5,0.2c-0.2,0-0.4-0.1-0.5-0.2
			c-0.1-0.1-0.2-0.3-0.2-0.5v-6.5c0-0.2,0.1-0.4,0.2-0.5c0.1-0.1,0.3-0.2,0.5-0.2c0.2,0,0.4,0.1,0.5,0.2c0.1,0.1,0.2,0.3,0.2,0.5v3
			l3.6-3.5c0.2-0.2,0.4-0.3,0.5-0.3c0.2,0,0.3,0.1,0.4,0.2c0.1,0.1,0.2,0.3,0.2,0.4c0,0.2-0.1,0.3-0.2,0.4l-2.4,2.3l2.5,3.3
			C90.4,161.6,90.5,161.7,90.5,161.8z"/>
		<path class="st5" d="M99,162.1c0,0.2-0.1,0.4-0.2,0.5c-0.1,0.1-0.3,0.2-0.4,0.2c-0.1,0-0.3,0-0.4-0.1c-0.1-0.1-0.2-0.2-0.3-0.3
			l-0.6-1.4h-3.3l-0.6,1.4c-0.1,0.1-0.1,0.3-0.2,0.3c-0.1,0.1-0.2,0.1-0.4,0.1c-0.2,0-0.3-0.1-0.4-0.2c-0.1-0.1-0.2-0.2-0.2-0.4
			c0-0.1,0-0.1,0-0.2l2.8-6.7c0.1-0.1,0.1-0.3,0.3-0.3c0.1-0.1,0.3-0.1,0.4-0.1c0.1,0,0.3,0,0.4,0.1c0.1,0.1,0.2,0.2,0.3,0.3
			l2.8,6.6C99,161.9,99,162,99,162.1z M94.4,159.7h2.2l-1.1-2.6L94.4,159.7z"/>
		<path class="st5" d="M106.3,155.4c0.5,0.3,0.9,0.8,1.2,1.4c0.3,0.6,0.4,1.3,0.4,2c0,0.7-0.1,1.4-0.4,2c-0.3,0.6-0.6,1.1-1.2,1.4
			c-0.5,0.3-1.1,0.5-1.8,0.5h-2.7c-0.2,0-0.4-0.1-0.5-0.2c-0.1-0.1-0.2-0.3-0.2-0.5v-6.5c0-0.2,0.1-0.4,0.2-0.5
			c0.1-0.1,0.3-0.2,0.5-0.2h2.7C105.2,154.9,105.8,155.1,106.3,155.4z M105.9,160.7c0.3-0.5,0.5-1.1,0.5-1.9c0-0.8-0.2-1.4-0.5-1.9
			c-0.3-0.5-0.8-0.7-1.5-0.7h-1.8v5.3h1.8C105,161.4,105.5,161.2,105.9,160.7z"/>
		<path class="st5" d="M115.2,161.6c0.1,0.1,0.2,0.3,0.2,0.5c0,0.2-0.1,0.3-0.2,0.5c-0.1,0.1-0.3,0.2-0.5,0.2h-3.8
			c-0.2,0-0.4-0.1-0.5-0.2s-0.2-0.3-0.2-0.5v-6.5c0-0.2,0.1-0.4,0.2-0.5c0.1-0.1,0.3-0.2,0.5-0.2h3.8c0.2,0,0.4,0.1,0.5,0.2
			c0.1,0.1,0.2,0.3,0.2,0.5c0,0.2-0.1,0.3-0.2,0.5c-0.1,0.1-0.3,0.2-0.5,0.2h-3v1.9h2.5c0.2,0,0.4,0.1,0.5,0.2
			c0.1,0.1,0.2,0.3,0.2,0.5c0,0.2-0.1,0.3-0.2,0.5c-0.1,0.1-0.3,0.2-0.5,0.2h-2.5v2.1h3C114.9,161.4,115,161.5,115.2,161.6z"/>
		<path class="st5" d="M122.7,161.6c0.1,0.1,0.2,0.3,0.2,0.5c0,0.2-0.1,0.3-0.2,0.5c-0.1,0.1-0.3,0.2-0.5,0.2h-3.8
			c-0.2,0-0.4-0.1-0.5-0.2s-0.2-0.3-0.2-0.5v-6.5c0-0.2,0.1-0.4,0.2-0.5c0.1-0.1,0.3-0.2,0.5-0.2h3.8c0.2,0,0.4,0.1,0.5,0.2
			c0.1,0.1,0.2,0.3,0.2,0.5c0,0.2-0.1,0.3-0.2,0.5c-0.1,0.1-0.3,0.2-0.5,0.2h-3v1.9h2.5c0.2,0,0.4,0.1,0.5,0.2
			c0.1,0.1,0.2,0.3,0.2,0.5c0,0.2-0.1,0.3-0.2,0.5c-0.1,0.1-0.3,0.2-0.5,0.2h-2.5v2.1h3C122.4,161.4,122.5,161.5,122.7,161.6z"/>
	</g>
</g>
</svg>
