<?xml version="1.0" encoding="utf-8"?>
<!-- Generator: Adobe Illustrator 22.0.1, SVG Export Plug-In . SVG Version: 6.00 Build 0)  -->
<svg version="1.1" id="Laag_1" xmlns="http://www.w3.org/2000/svg" xmlns:xlink="http://www.w3.org/1999/xlink" x="0px" y="0px"
	 viewBox="0 0 207.3 205.9" style="enable-background:new 0 0 207.3 205.9;" xml:space="preserve">
<style type="text/css">
	.st0{fill:#A9BF59;}
	.st1{fill:none;stroke:#A9BF59;stroke-width:3.1405;stroke-linecap:round;stroke-linejoin:round;stroke-miterlimit:10;}
	.st2{fill:none;stroke:#FFFFFF;stroke-width:3.1405;stroke-linecap:round;stroke-linejoin:round;stroke-miterlimit:10;}
	.st3{fill:#FFFFFF;}
	.st4{opacity:0.77;}
	.st5{fill:#A0C050;}
	.st6{fill:#7E9840;}
	.st7{fill:none;stroke:#7E9840;stroke-width:0.75;stroke-linecap:round;stroke-miterlimit:10;}
	.st8{fill:none;stroke:#7E9840;stroke-width:0.75;stroke-linecap:round;stroke-miterlimit:10;stroke-dasharray:1.9882,1.9882;}
	.st9{fill:none;stroke:#7E9840;stroke-width:0.75;stroke-linecap:round;stroke-miterlimit:10;stroke-dasharray:1.9844,1.9844;}
	.st10{fill:#FFFFFF;stroke:#000000;stroke-width:0.7845;stroke-miterlimit:10;}
	.st11{fill:none;stroke:#A0C050;stroke-width:2.4637;stroke-linecap:round;stroke-linejoin:round;stroke-miterlimit:10;}
	.st12{fill:none;stroke:#FFFFFF;stroke-width:2.4637;stroke-linecap:round;stroke-linejoin:round;stroke-miterlimit:10;}
	.st13{fill:none;stroke:#FFFFFF;stroke-width:4.2133;stroke-linecap:round;stroke-linejoin:round;stroke-miterlimit:10;}
	.st14{fill:none;stroke:#7E9840;stroke-width:1.0062;stroke-linecap:round;stroke-miterlimit:10;}
	.st15{fill:none;stroke:#7E9840;stroke-width:1.0062;stroke-linecap:round;stroke-miterlimit:10;stroke-dasharray:2.6673,2.6673;}
	.st16{fill:none;stroke:#7E9840;stroke-width:1.0062;stroke-linecap:round;stroke-miterlimit:10;stroke-dasharray:2.6623,2.6623;}
	.st17{fill:#FFFFFF;stroke:#000000;stroke-width:0.7798;stroke-miterlimit:10;}
	.st18{fill:none;stroke:#A0C050;stroke-width:3.3658;stroke-linecap:round;stroke-linejoin:round;stroke-miterlimit:10;}
	.st19{fill:none;stroke:#312783;stroke-width:2.4488;stroke-linecap:round;stroke-linejoin:round;stroke-miterlimit:10;}
	.st20{fill:#312783;}
	.st21{fill:none;stroke:#A0C050;stroke-width:2.4488;stroke-linecap:round;stroke-linejoin:round;stroke-miterlimit:10;}
	.st22{fill:none;stroke:#A0C050;stroke-width:1.5595;stroke-linecap:round;stroke-linejoin:round;stroke-miterlimit:10;}
	.st23{fill:none;stroke:#A0C050;stroke-width:2.4378;stroke-linecap:round;stroke-linejoin:round;stroke-miterlimit:10;}
	.st24{fill:#E94753;}
	.st25{fill:none;stroke:#A0C050;stroke-width:4.3165;stroke-linecap:round;stroke-linejoin:round;stroke-miterlimit:10;}
	.st26{fill:none;stroke:#A0C050;stroke-width:3.1615;stroke-linecap:round;stroke-linejoin:round;stroke-miterlimit:10;}
	.st27{fill:none;stroke:#951B81;stroke-width:3.1405;stroke-linecap:round;stroke-linejoin:round;stroke-miterlimit:10;}
	.st28{fill:#951B81;}
	.st29{fill:none;stroke:#A0C050;stroke-width:3.1391;stroke-linecap:round;stroke-linejoin:round;stroke-miterlimit:10;}
	.st30{fill:none;stroke:#A0C050;stroke-width:3.1405;stroke-linecap:round;stroke-linejoin:round;stroke-miterlimit:10;}
	.st31{fill:none;stroke:#A0C050;stroke-width:2;stroke-linecap:round;stroke-linejoin:round;stroke-miterlimit:10;}
</style>
<g>
	<path class="st25" d="M144.9,93.3l21.4,11.3c14.5,7.7,14.5,20.1,0,27.8v0c-14.5,7.7-38,7.7-52.4,0l-10.9-5.8
		c-7.8,6.6-18.8,11.5-33.8,11.5l0,0c-20.5,0-37.1-8.8-37.1-19.6V58.7C32.2,47.8,48.8,39,69.2,39l0,0c15,0,25.5,5.4,33.8,11.5
		l10.9-5.8c14.5-7.7,38-7.7,52.4,0v0c14.5,7.7,14.5,20.1,0,27.8l-30.3,16c0,0-25.2,14.2-29.2,15.5c-3.1,1.1-6.9,1.7-10.9,1.7
		c-10.1-0.2-18-4.7-17.6-10c0.2-3.5,4-6.5,9.4-8.1c-5.2-1.8-8.5-4.9-8.3-8.4c0.4-5.3,8.9-9.5,18.9-9.3c4.1,0.1,7.8,0.9,10.7,2.1
		c2.8,1,11.5,7.2,19,11.5"/>
	<g>
		<path class="st5" d="M53.3,164.8c0.1,0.2,0.2,0.3,0.2,0.5c0,0.4-0.3,0.7-0.9,1c-0.6,0.3-1.3,0.4-2,0.4c-0.4,0-0.7,0-1.1-0.1
			s-0.6-0.2-0.9-0.4l-9.2-6.4l-4,2.1v3.5c0,0.4-0.2,0.7-0.7,1c-0.5,0.3-1.1,0.4-1.9,0.4c-0.8,0-1.4-0.1-1.9-0.4s-0.7-0.6-0.7-1v-13
			c0-0.4,0.3-0.7,0.8-1c0.5-0.3,1.2-0.4,2-0.4c0.8,0,1.4,0.1,1.9,0.4c0.5,0.3,0.7,0.6,0.7,1v6.1l13.6-7.1c0.7-0.3,1.3-0.5,2.1-0.5
			c0.7,0,1.2,0.1,1.7,0.4c0.5,0.3,0.7,0.6,0.7,0.9c0,0.3-0.3,0.6-0.8,0.9l-9.3,4.7l9.5,6.7C53.1,164.5,53.2,164.6,53.3,164.8z"/>
		<path class="st5" d="M85.8,165.5c0,0.4-0.2,0.7-0.7,1c-0.5,0.2-1,0.4-1.7,0.4c-0.5,0-1-0.1-1.4-0.2c-0.4-0.2-0.7-0.4-1-0.7
			l-2.2-2.7H66.2l-2.2,2.8c-0.2,0.3-0.5,0.5-0.9,0.7c-0.4,0.2-0.9,0.2-1.3,0.2c-0.7,0-1.3-0.1-1.7-0.3c-0.4-0.2-0.6-0.5-0.6-0.9
			c0-0.1,0-0.3,0.1-0.4l10.6-13.5c0.2-0.3,0.6-0.5,1-0.7s1-0.2,1.5-0.2c0.5,0,1,0.1,1.4,0.2c0.4,0.2,0.8,0.4,1,0.7l10.5,13.2
			C85.8,165.1,85.8,165.3,85.8,165.5z M68.3,160.6h8.5l-4.3-5.3L68.3,160.6z"/>
		<path class="st5" d="M113.4,152c1.9,0.7,3.4,1.6,4.4,2.8c1,1.2,1.5,2.5,1.5,4c0,1.5-0.5,2.8-1.5,4c-1,1.2-2.5,2.1-4.4,2.8
			c-1.9,0.7-4.2,1-6.9,1H96.3c-0.7,0-1.4-0.1-1.9-0.4s-0.7-0.6-0.7-1v-13c0-0.4,0.2-0.7,0.7-1c0.5-0.3,1.1-0.4,1.9-0.4h10.2
			C109.2,150.9,111.5,151.3,113.4,152z M111.8,162.6c1.3-1,1.9-2.3,1.9-3.8c0-1.5-0.6-2.8-1.9-3.8c-1.3-1-3.2-1.5-5.7-1.5h-7v10.6h7
			C108.6,164.1,110.5,163.6,111.8,162.6z"/>
		<path class="st5" d="M147.2,164.5c0.5,0.3,0.7,0.6,0.7,0.9c0,0.4-0.2,0.7-0.7,0.9c-0.5,0.2-1.1,0.4-1.9,0.4H131
			c-0.7,0-1.4-0.1-1.9-0.4c-0.5-0.3-0.7-0.6-0.7-1v-13c0-0.4,0.2-0.7,0.7-1c0.5-0.3,1.1-0.4,1.9-0.4h14.3c0.7,0,1.4,0.1,1.9,0.4
			c0.5,0.2,0.7,0.6,0.7,1c0,0.4-0.2,0.7-0.7,0.9c-0.5,0.2-1.1,0.3-1.9,0.3h-11.5v3.8h9.6c0.7,0,1.4,0.1,1.9,0.4
			c0.5,0.2,0.7,0.6,0.7,1c0,0.4-0.2,0.7-0.7,0.9c-0.5,0.2-1.1,0.3-1.9,0.3h-9.6v4.2h11.5C146,164.1,146.7,164.2,147.2,164.5z"/>
		<path class="st5" d="M175.8,164.5c0.5,0.3,0.7,0.6,0.7,0.9c0,0.4-0.2,0.7-0.7,0.9c-0.5,0.2-1.1,0.4-1.9,0.4h-14.3
			c-0.7,0-1.4-0.1-1.9-0.4s-0.7-0.6-0.7-1v-13c0-0.4,0.2-0.7,0.7-1c0.5-0.3,1.1-0.4,1.9-0.4h14.3c0.7,0,1.4,0.1,1.9,0.4
			c0.5,0.2,0.7,0.6,0.7,1c0,0.4-0.2,0.7-0.7,0.9c-0.5,0.2-1.1,0.3-1.9,0.3h-11.5v3.8h9.6c0.7,0,1.4,0.1,1.9,0.4
			c0.5,0.2,0.7,0.6,0.7,1c0,0.4-0.2,0.7-0.7,0.9c-0.5,0.2-1.1,0.3-1.9,0.3h-9.6v4.2h11.5C174.7,164.1,175.3,164.2,175.8,164.5z"/>
	</g>
</g>
</svg>
