<?xml version="1.0" encoding="utf-8"?>
<!-- Generator: Adobe Illustrator 22.0.1, SVG Export Plug-In . SVG Version: 6.00 Build 0)  -->
<svg version="1.1" id="Laag_1" xmlns="http://www.w3.org/2000/svg" xmlns:xlink="http://www.w3.org/1999/xlink" x="0px" y="0px"
	 viewBox="0 0 207.3 205.9" style="enable-background:new 0 0 207.3 205.9;" xml:space="preserve">
<style type="text/css">
	.st0{fill:#A9BF59;}
	.st1{fill:none;stroke:#A9BF59;stroke-width:3.1405;stroke-linecap:round;stroke-linejoin:round;stroke-miterlimit:10;}
	.st2{fill:none;stroke:#FFFFFF;stroke-width:3.1405;stroke-linecap:round;stroke-linejoin:round;stroke-miterlimit:10;}
	.st3{fill:#FFFFFF;}
	.st4{opacity:0.77;}
	.st5{fill:#A0C050;}
	.st6{fill:#7E9840;}
	.st7{fill:none;stroke:#7E9840;stroke-width:0.75;stroke-linecap:round;stroke-miterlimit:10;}
	.st8{fill:none;stroke:#7E9840;stroke-width:0.75;stroke-linecap:round;stroke-miterlimit:10;stroke-dasharray:1.9882,1.9882;}
	.st9{fill:none;stroke:#7E9840;stroke-width:0.75;stroke-linecap:round;stroke-miterlimit:10;stroke-dasharray:1.9844,1.9844;}
	.st10{fill:#FFFFFF;stroke:#000000;stroke-width:0.7845;stroke-miterlimit:10;}
	.st11{fill:none;stroke:#A0C050;stroke-width:2.4637;stroke-linecap:round;stroke-linejoin:round;stroke-miterlimit:10;}
	.st12{fill:none;stroke:#FFFFFF;stroke-width:2.4637;stroke-linecap:round;stroke-linejoin:round;stroke-miterlimit:10;}
	.st13{fill:none;stroke:#FFFFFF;stroke-width:4.2133;stroke-linecap:round;stroke-linejoin:round;stroke-miterlimit:10;}
	.st14{fill:none;stroke:#7E9840;stroke-width:1.0062;stroke-linecap:round;stroke-miterlimit:10;}
	.st15{fill:none;stroke:#7E9840;stroke-width:1.0062;stroke-linecap:round;stroke-miterlimit:10;stroke-dasharray:2.6673,2.6673;}
	.st16{fill:none;stroke:#7E9840;stroke-width:1.0062;stroke-linecap:round;stroke-miterlimit:10;stroke-dasharray:2.6623,2.6623;}
	.st17{fill:#FFFFFF;stroke:#000000;stroke-width:0.7798;stroke-miterlimit:10;}
	.st18{fill:none;stroke:#A0C050;stroke-width:3.3658;stroke-linecap:round;stroke-linejoin:round;stroke-miterlimit:10;}
	.st19{fill:none;stroke:#312783;stroke-width:2.4488;stroke-linecap:round;stroke-linejoin:round;stroke-miterlimit:10;}
	.st20{fill:#312783;}
	.st21{fill:none;stroke:#A0C050;stroke-width:2.4488;stroke-linecap:round;stroke-linejoin:round;stroke-miterlimit:10;}
	.st22{fill:none;stroke:#A0C050;stroke-width:1.5595;stroke-linecap:round;stroke-linejoin:round;stroke-miterlimit:10;}
	.st23{fill:none;stroke:#A0C050;stroke-width:2.4378;stroke-linecap:round;stroke-linejoin:round;stroke-miterlimit:10;}
	.st24{fill:#E94753;}
	.st25{fill:none;stroke:#A0C050;stroke-width:4.3165;stroke-linecap:round;stroke-linejoin:round;stroke-miterlimit:10;}
	.st26{fill:none;stroke:#A0C050;stroke-width:3.1615;stroke-linecap:round;stroke-linejoin:round;stroke-miterlimit:10;}
	.st27{fill:none;stroke:#951B81;stroke-width:3.1405;stroke-linecap:round;stroke-linejoin:round;stroke-miterlimit:10;}
	.st28{fill:#951B81;}
	.st29{fill:none;stroke:#A0C050;stroke-width:3.1391;stroke-linecap:round;stroke-linejoin:round;stroke-miterlimit:10;}
	.st30{fill:none;stroke:#A0C050;stroke-width:3.1405;stroke-linecap:round;stroke-linejoin:round;stroke-miterlimit:10;}
	.st31{fill:none;stroke:#A0C050;stroke-width:2;stroke-linecap:round;stroke-linejoin:round;stroke-miterlimit:10;}
</style>
<g>
	<rect x="0.2" y="-0.5" class="st5" width="206.8" height="206.8"/>
	<path class="st2" d="M125.5,93.3l11.3,11.3c7.7,7.7,7.7,20.1,0,27.8v0c-7.7,7.7-20.1,7.7-27.8,0l-5.8-5.8
		c-4.1,6.6-9.9,11.5-17.9,11.5l0,0c-10.8,0-19.6-8.8-19.6-19.6V58.7c0-10.8,8.8-19.6,19.6-19.6l0,0c7.9,0,13.5,5.4,17.9,11.5
		l5.8-5.8c7.7-7.7,20.1-7.7,27.8,0v0c7.7,7.7,7.7,20.1,0,27.8l-16,16c0,0-13.3,14.2-15.5,15.5c-1.6,1.1-3.6,1.7-5.8,1.7
		c-5.3-0.2-9.5-4.7-9.3-10c0.1-3.5,2.1-6.5,5-8.1c-2.7-1.8-4.5-4.9-4.4-8.4c0.2-5.3,4.7-9.5,10-9.3c2.2,0.1,4.1,0.9,5.7,2.1
		c1.5,1,6.1,7.2,10.1,11.5"/>
	<path class="st3" d="M77.3,164.7c0.1,0.2,0.1,0.3,0.1,0.5c0,0.4-0.2,0.8-0.5,1c-0.3,0.3-0.7,0.4-1.1,0.4c-0.2,0-0.4,0-0.6-0.1
		s-0.3-0.2-0.5-0.4l-5-6.6l-2.2,2.1v3.6c0,0.4-0.1,0.8-0.4,1c-0.3,0.3-0.6,0.4-1.1,0.4c-0.4,0-0.8-0.1-1-0.4s-0.4-0.6-0.4-1v-13.4
		c0-0.4,0.1-0.7,0.4-1c0.3-0.3,0.6-0.4,1.1-0.4c0.4,0,0.8,0.1,1,0.4s0.4,0.6,0.4,1v6.3l7.4-7.3c0.4-0.4,0.7-0.5,1.1-0.5
		c0.4,0,0.7,0.1,0.9,0.4c0.2,0.3,0.4,0.6,0.4,0.9c0,0.3-0.1,0.6-0.4,0.9l-5,4.8l5.2,6.8C77.2,164.4,77.2,164.6,77.3,164.7z"/>
	<path class="st6" d="M109.9,35.5c0.1,0.2,0.1,0.3,0.1,0.5c0,0.4-0.2,0.8-0.5,1c-0.3,0.3-0.7,0.4-1.1,0.4c-0.2,0-0.4,0-0.6-0.1
		c-0.2-0.1-0.3-0.2-0.5-0.4l-5-6.6l-2.2,2.1V36c0,0.4-0.1,0.8-0.4,1s-0.6,0.4-1.1,0.4c-0.4,0-0.8-0.1-1-0.4c-0.3-0.3-0.4-0.6-0.4-1
		V22.7c0-0.4,0.1-0.7,0.4-1c0.3-0.3,0.6-0.4,1.1-0.4c0.4,0,0.8,0.1,1,0.4s0.4,0.6,0.4,1v6.3l7.4-7.3c0.4-0.4,0.7-0.5,1.1-0.5
		c0.4,0,0.7,0.1,0.9,0.4c0.2,0.3,0.4,0.6,0.4,0.9c0,0.3-0.1,0.6-0.4,0.9l-5,4.8l5.2,6.8C109.8,35.1,109.8,35.3,109.9,35.5z"/>
	<path class="st6" d="M109.9,180.7c0.1,0.2,0.1,0.3,0.1,0.5c0,0.4-0.2,0.8-0.5,1c-0.3,0.3-0.7,0.4-1.1,0.4c-0.2,0-0.4,0-0.6-0.1
		c-0.2-0.1-0.3-0.2-0.5-0.4l-5-6.6l-2.2,2.1v3.6c0,0.4-0.1,0.8-0.4,1s-0.6,0.4-1.1,0.4c-0.4,0-0.8-0.1-1-0.4c-0.3-0.3-0.4-0.6-0.4-1
		v-13.4c0-0.4,0.1-0.7,0.4-1c0.3-0.3,0.6-0.4,1.1-0.4c0.4,0,0.8,0.1,1,0.4s0.4,0.6,0.4,1v6.3l7.4-7.3c0.4-0.4,0.7-0.5,1.1-0.5
		c0.4,0,0.7,0.1,0.9,0.4c0.2,0.3,0.4,0.6,0.4,0.9c0,0.3-0.1,0.6-0.4,0.9l-5,4.8l5.2,6.8C109.8,180.4,109.8,180.5,109.9,180.7z"/>
	<path class="st6" d="M158.7,88.7c0.2-0.1,0.3-0.1,0.5-0.1c0.4,0,0.8,0.2,1,0.5c0.3,0.3,0.4,0.7,0.4,1.1c0,0.2,0,0.4-0.1,0.6
		c-0.1,0.2-0.2,0.3-0.4,0.5l-6.6,5l2.1,2.2h3.6c0.4,0,0.8,0.1,1,0.4c0.3,0.3,0.4,0.6,0.4,1.1c0,0.4-0.1,0.8-0.4,1
		c-0.3,0.3-0.6,0.4-1,0.4h-13.4c-0.4,0-0.7-0.1-1-0.4c-0.3-0.3-0.4-0.6-0.4-1.1c0-0.4,0.1-0.8,0.4-1s0.6-0.4,1-0.4h6.3l-7.3-7.4
		c-0.4-0.4-0.5-0.7-0.5-1.1c0-0.4,0.1-0.7,0.4-0.9c0.3-0.2,0.6-0.4,0.9-0.4c0.3,0,0.6,0.1,0.9,0.4l4.8,5l6.8-5.2
		C158.4,88.8,158.5,88.7,158.7,88.7z"/>
	<path class="st6" d="M62.1,88.7c0.2-0.1,0.3-0.1,0.5-0.1c0.4,0,0.8,0.2,1,0.5c0.3,0.3,0.4,0.7,0.4,1.1c0,0.2,0,0.4-0.1,0.6
		c-0.1,0.2-0.2,0.3-0.4,0.5l-6.6,5l2.1,2.2h3.6c0.4,0,0.8,0.1,1,0.4c0.3,0.3,0.4,0.6,0.4,1.1c0,0.4-0.1,0.8-0.4,1
		c-0.3,0.3-0.6,0.4-1,0.4H49.2c-0.4,0-0.7-0.1-1-0.4c-0.3-0.3-0.4-0.6-0.4-1.1c0-0.4,0.1-0.8,0.4-1c0.3-0.3,0.6-0.4,1-0.4h6.3
		L48.3,91c-0.4-0.4-0.5-0.7-0.5-1.1c0-0.4,0.1-0.7,0.4-0.9c0.3-0.2,0.6-0.4,0.9-0.4c0.3,0,0.6,0.1,0.9,0.4l4.8,5l6.8-5.2
		C61.7,88.8,61.9,88.7,62.1,88.7z"/>
	<path class="st3" d="M94.9,165.4c0,0.4-0.1,0.7-0.4,1c-0.3,0.3-0.6,0.4-0.9,0.4c-0.3,0-0.5-0.1-0.8-0.3c-0.2-0.2-0.4-0.4-0.5-0.7
		l-1.2-2.8h-6.9l-1.2,2.8c-0.1,0.3-0.3,0.5-0.5,0.7c-0.2,0.2-0.5,0.2-0.7,0.2c-0.4,0-0.7-0.1-0.9-0.3c-0.2-0.2-0.3-0.5-0.3-0.9
		c0-0.1,0-0.3,0.1-0.4l5.8-13.8c0.1-0.3,0.3-0.5,0.6-0.7s0.5-0.2,0.8-0.2c0.3,0,0.5,0.1,0.8,0.2c0.2,0.2,0.4,0.4,0.5,0.7l5.7,13.5
		C94.9,165.1,94.9,165.3,94.9,165.4z M85.4,160.4H90l-2.3-5.4L85.4,160.4z"/>
	<path class="st3" d="M109.9,151.6c1,0.7,1.8,1.7,2.4,2.9c0.5,1.2,0.8,2.6,0.8,4.1c0,1.5-0.3,2.9-0.8,4.1c-0.5,1.2-1.3,2.2-2.4,2.9
		c-1,0.7-2.3,1.1-3.7,1.1h-5.5c-0.4,0-0.7-0.1-1-0.4s-0.4-0.6-0.4-1v-13.4c0-0.4,0.1-0.7,0.4-1c0.3-0.3,0.6-0.4,1-0.4h5.5
		C107.6,150.5,108.8,150.9,109.9,151.6z M109,162.5c0.7-1,1-2.3,1-3.9c0-1.6-0.4-2.9-1.1-3.9c-0.7-1-1.7-1.5-3.1-1.5h-3.8V164h3.8
		C107.3,164,108.3,163.5,109,162.5z"/>
	<path class="st3" d="M128.2,164.4c0.3,0.3,0.4,0.6,0.4,0.9c0,0.4-0.1,0.7-0.4,0.9c-0.3,0.2-0.6,0.4-1,0.4h-7.7
		c-0.4,0-0.7-0.1-1-0.4s-0.4-0.6-0.4-1v-13.4c0-0.4,0.1-0.7,0.4-1c0.3-0.3,0.6-0.4,1-0.4h7.7c0.4,0,0.7,0.1,1,0.4
		c0.3,0.3,0.4,0.6,0.4,1c0,0.4-0.1,0.7-0.4,0.9c-0.3,0.2-0.6,0.4-1,0.4h-6.3v3.9h5.2c0.4,0,0.7,0.1,1,0.4c0.3,0.3,0.4,0.6,0.4,1
		c0,0.4-0.1,0.7-0.4,0.9c-0.3,0.2-0.6,0.4-1,0.4h-5.2v4.3h6.3C127.6,164,127.9,164.2,128.2,164.4z"/>
	<path class="st3" d="M143.7,164.4c0.3,0.3,0.4,0.6,0.4,0.9c0,0.4-0.1,0.7-0.4,0.9c-0.3,0.2-0.6,0.4-1,0.4H135c-0.4,0-0.7-0.1-1-0.4
		c-0.3-0.3-0.4-0.6-0.4-1v-13.4c0-0.4,0.1-0.7,0.4-1c0.3-0.3,0.6-0.4,1-0.4h7.7c0.4,0,0.7,0.1,1,0.4c0.3,0.3,0.4,0.6,0.4,1
		c0,0.4-0.1,0.7-0.4,0.9c-0.3,0.2-0.6,0.4-1,0.4h-6.3v3.9h5.2c0.4,0,0.7,0.1,1,0.4c0.3,0.3,0.4,0.6,0.4,1c0,0.4-0.1,0.7-0.4,0.9
		c-0.3,0.2-0.6,0.4-1,0.4h-5.2v4.3h6.3C143.1,164,143.5,164.2,143.7,164.4z"/>
	<g>
		<g>
			<line class="st7" x1="0.2" y1="37" x2="1.2" y2="37"/>
			<line class="st8" x1="3.2" y1="37" x2="205" y2="37"/>
			<line class="st7" x1="206" y1="37" x2="207" y2="37"/>
		</g>
	</g>
	<g>
		<g>
			<line class="st7" x1="63.7" y1="-0.4" x2="63.7" y2="0.6"/>
			<line class="st9" x1="63.7" y1="2.6" x2="63.7" y2="204"/>
			<line class="st7" x1="63.7" y1="205" x2="63.7" y2="206"/>
		</g>
	</g>
	<g>
		<g>
			<line class="st7" x1="47.7" y1="-0.5" x2="47.7" y2="0.5"/>
			<line class="st9" x1="47.7" y1="2.5" x2="47.7" y2="203.9"/>
			<line class="st7" x1="47.7" y1="204.9" x2="47.7" y2="205.9"/>
		</g>
	</g>
	<g>
		<g>
			<line class="st7" x1="160.6" y1="-0.4" x2="160.6" y2="0.6"/>
			<line class="st9" x1="160.6" y1="2.6" x2="160.6" y2="204"/>
			<line class="st7" x1="160.6" y1="205" x2="160.6" y2="206"/>
		</g>
	</g>
	<g>
		<g>
			<line class="st7" x1="144.7" y1="-0.5" x2="144.7" y2="0.5"/>
			<line class="st9" x1="144.7" y1="2.5" x2="144.7" y2="203.9"/>
			<line class="st7" x1="144.7" y1="204.9" x2="144.7" y2="205.9"/>
		</g>
	</g>
	<g>
		<g>
			<line class="st7" x1="0.2" y1="166.8" x2="1.2" y2="166.8"/>
			<line class="st8" x1="3.2" y1="166.8" x2="205" y2="166.8"/>
			<line class="st7" x1="206" y1="166.8" x2="207" y2="166.8"/>
		</g>
	</g>
	<g>
		<g>
			<line class="st7" x1="0.2" y1="182.6" x2="1.2" y2="182.6"/>
			<line class="st8" x1="3.2" y1="182.6" x2="205" y2="182.6"/>
			<line class="st7" x1="206" y1="182.6" x2="207" y2="182.6"/>
		</g>
	</g>
	<g>
		<g>
			<line class="st7" x1="0.2" y1="21.1" x2="1.2" y2="21.1"/>
			<line class="st8" x1="3.2" y1="21.1" x2="205" y2="21.1"/>
			<line class="st7" x1="206" y1="21.1" x2="207" y2="21.1"/>
		</g>
	</g>
</g>
</svg>
