<?xml version="1.0" encoding="utf-8"?>
<!-- Generator: Adobe Illustrator 22.0.1, SVG Export Plug-In . SVG Version: 6.00 Build 0)  -->
<svg version="1.1" id="Laag_1" xmlns="http://www.w3.org/2000/svg" xmlns:xlink="http://www.w3.org/1999/xlink" x="0px" y="0px"
	 viewBox="0 0 207.3 205.9" style="enable-background:new 0 0 207.3 205.9;" xml:space="preserve">
<style type="text/css">
	.st0{fill:#A9BF59;}
	.st1{fill:none;stroke:#A9BF59;stroke-width:3.1405;stroke-linecap:round;stroke-linejoin:round;stroke-miterlimit:10;}
	.st2{fill:none;stroke:#FFFFFF;stroke-width:3.1405;stroke-linecap:round;stroke-linejoin:round;stroke-miterlimit:10;}
	.st3{fill:#FFFFFF;}
	.st4{opacity:0.77;}
	.st5{fill:#A0C050;}
	.st6{fill:#7E9840;}
	.st7{fill:none;stroke:#7E9840;stroke-width:0.75;stroke-linecap:round;stroke-miterlimit:10;}
	.st8{fill:none;stroke:#7E9840;stroke-width:0.75;stroke-linecap:round;stroke-miterlimit:10;stroke-dasharray:1.9882,1.9882;}
	.st9{fill:none;stroke:#7E9840;stroke-width:0.75;stroke-linecap:round;stroke-miterlimit:10;stroke-dasharray:1.9844,1.9844;}
	.st10{fill:#FFFFFF;stroke:#000000;stroke-width:0.7845;stroke-miterlimit:10;}
	.st11{fill:none;stroke:#A0C050;stroke-width:2.4637;stroke-linecap:round;stroke-linejoin:round;stroke-miterlimit:10;}
	.st12{fill:none;stroke:#FFFFFF;stroke-width:2.4637;stroke-linecap:round;stroke-linejoin:round;stroke-miterlimit:10;}
	.st13{fill:none;stroke:#FFFFFF;stroke-width:4.2133;stroke-linecap:round;stroke-linejoin:round;stroke-miterlimit:10;}
	.st14{fill:none;stroke:#7E9840;stroke-width:1.0062;stroke-linecap:round;stroke-miterlimit:10;}
	.st15{fill:none;stroke:#7E9840;stroke-width:1.0062;stroke-linecap:round;stroke-miterlimit:10;stroke-dasharray:2.6673,2.6673;}
	.st16{fill:none;stroke:#7E9840;stroke-width:1.0062;stroke-linecap:round;stroke-miterlimit:10;stroke-dasharray:2.6623,2.6623;}
	.st17{fill:#FFFFFF;stroke:#000000;stroke-width:0.7798;stroke-miterlimit:10;}
	.st18{fill:none;stroke:#A0C050;stroke-width:3.3658;stroke-linecap:round;stroke-linejoin:round;stroke-miterlimit:10;}
	.st19{fill:none;stroke:#312783;stroke-width:2.4488;stroke-linecap:round;stroke-linejoin:round;stroke-miterlimit:10;}
	.st20{fill:#312783;}
	.st21{fill:none;stroke:#A0C050;stroke-width:2.4488;stroke-linecap:round;stroke-linejoin:round;stroke-miterlimit:10;}
	.st22{fill:none;stroke:#A0C050;stroke-width:1.5595;stroke-linecap:round;stroke-linejoin:round;stroke-miterlimit:10;}
	.st23{fill:none;stroke:#A0C050;stroke-width:2.4378;stroke-linecap:round;stroke-linejoin:round;stroke-miterlimit:10;}
	.st24{fill:#E94753;}
	.st25{fill:none;stroke:#A0C050;stroke-width:4.3165;stroke-linecap:round;stroke-linejoin:round;stroke-miterlimit:10;}
	.st26{fill:none;stroke:#A0C050;stroke-width:3.1615;stroke-linecap:round;stroke-linejoin:round;stroke-miterlimit:10;}
	.st27{fill:none;stroke:#951B81;stroke-width:3.1405;stroke-linecap:round;stroke-linejoin:round;stroke-miterlimit:10;}
	.st28{fill:#951B81;}
	.st29{fill:none;stroke:#A0C050;stroke-width:3.1391;stroke-linecap:round;stroke-linejoin:round;stroke-miterlimit:10;}
	.st30{fill:none;stroke:#A0C050;stroke-width:3.1405;stroke-linecap:round;stroke-linejoin:round;stroke-miterlimit:10;}
	.st31{fill:none;stroke:#A0C050;stroke-width:2;stroke-linecap:round;stroke-linejoin:round;stroke-miterlimit:10;}
</style>
<g>
	<path class="st31" d="M112,83.3l4.4,4.4c3,3,3,7.8,0,10.8v0c-3,3-7.8,3-10.8,0l-2.2-2.2c-1.6,2.6-3.9,4.5-7,4.5l0,0
		c-4.2,0-7.6-3.4-7.6-7.6V69.8c0-4.2,3.4-7.6,7.6-7.6l0,0c3.1,0,5.3,2.1,7,4.5l2.2-2.2c3-3,7.8-3,10.8,0v0c3,3,3,7.8,0,10.8
		l-6.2,6.2c0,0-5.2,5.5-6,6c-0.6,0.4-1.4,0.7-2.2,0.6c-2.1-0.1-3.7-1.8-3.6-3.9c0-1.4,0.8-2.5,1.9-3.2c-1.1-0.7-1.8-1.9-1.7-3.3
		c0.1-2.1,1.8-3.7,3.9-3.6c0.8,0,1.6,0.3,2.2,0.8c0.6,0.4,2.4,2.8,3.9,4.5"/>
	<g>
		<path class="st5" d="M59.9,140.3c0.1,0.3,0.1,0.6,0.1,0.8c0,0.7-0.3,1.2-0.8,1.7c-0.5,0.4-1.1,0.7-1.8,0.7c-0.3,0-0.6-0.1-0.9-0.2
			c-0.3-0.1-0.5-0.4-0.7-0.6L47.8,132l-3.5,3.4v5.8c0,0.7-0.2,1.2-0.7,1.6c-0.4,0.4-1,0.6-1.7,0.6c-0.7,0-1.2-0.2-1.7-0.7
			c-0.4-0.4-0.7-1-0.7-1.6v-21.5c0-0.6,0.2-1.2,0.7-1.6c0.4-0.4,1-0.7,1.7-0.7c0.7,0,1.2,0.2,1.6,0.6c0.4,0.4,0.6,1,0.6,1.6v10.1
			l11.9-11.7c0.6-0.6,1.2-0.9,1.8-0.9c0.6,0,1.1,0.2,1.5,0.7c0.4,0.5,0.6,1,0.6,1.5c0,0.5-0.2,1-0.7,1.5l-8.1,7.7l8.3,11
			C59.7,139.8,59.8,140.1,59.9,140.3z"/>
		<path class="st5" d="M88.4,141.5c0,0.6-0.2,1.2-0.6,1.6c-0.4,0.4-0.9,0.6-1.5,0.6c-0.4,0-0.9-0.1-1.2-0.4
			c-0.4-0.3-0.6-0.6-0.8-1.1l-1.9-4.5H71.2l-1.9,4.5c-0.2,0.5-0.4,0.8-0.8,1.1c-0.4,0.3-0.8,0.4-1.2,0.4c-0.6,0-1.1-0.2-1.5-0.5
			c-0.3-0.3-0.5-0.8-0.5-1.4c0-0.2,0-0.5,0.1-0.7l9.3-22.3c0.2-0.5,0.5-0.9,0.9-1.2c0.4-0.3,0.8-0.4,1.3-0.3c0.4,0,0.9,0.1,1.2,0.4
			c0.4,0.3,0.7,0.6,0.8,1.1l9.2,21.8C88.3,140.9,88.4,141.2,88.4,141.5z M73,133.4h7.4l-3.8-8.7L73,133.4z"/>
		<path class="st5" d="M112.4,119.2c1.7,1.2,3,2.7,3.8,4.7c0.9,2,1.3,4.2,1.3,6.6c0,2.4-0.4,4.6-1.3,6.6c-0.9,2-2.2,3.5-3.8,4.7
			c-1.7,1.2-3.7,1.7-6,1.7h-8.9c-0.6,0-1.2-0.2-1.6-0.7s-0.7-1-0.7-1.6v-21.5c0-0.6,0.2-1.2,0.7-1.6c0.4-0.4,1-0.7,1.6-0.7h8.9
			C108.8,117.4,110.8,118,112.4,119.2z M111.1,136.7c1.1-1.7,1.7-3.7,1.7-6.3c0-2.5-0.6-4.6-1.7-6.3c-1.1-1.7-2.8-2.5-5-2.5h-6.1
			v17.5h6.1C108.3,139.2,110,138.4,111.1,136.7z"/>
		<path class="st5" d="M142,139.9c0.4,0.4,0.7,0.9,0.7,1.5c0,0.6-0.2,1.1-0.7,1.5c-0.4,0.4-1,0.6-1.6,0.6h-12.5
			c-0.6,0-1.2-0.2-1.6-0.7c-0.4-0.4-0.7-1-0.7-1.6v-21.5c0-0.6,0.2-1.2,0.7-1.6c0.4-0.4,1-0.7,1.6-0.7h12.5c0.6,0,1.2,0.2,1.6,0.6
			c0.4,0.4,0.7,0.9,0.7,1.6c0,0.6-0.2,1.1-0.6,1.5c-0.4,0.4-1,0.6-1.6,0.6h-10.1v6.3h8.4c0.6,0,1.2,0.2,1.6,0.6
			c0.4,0.4,0.7,0.9,0.7,1.6c0,0.6-0.2,1.1-0.6,1.5c-0.4,0.4-1,0.6-1.6,0.6h-8.4v6.9h10.1C141,139.2,141.5,139.4,142,139.9z"/>
		<path class="st5" d="M167,139.9c0.4,0.4,0.7,0.9,0.7,1.5c0,0.6-0.2,1.1-0.7,1.5c-0.4,0.4-1,0.6-1.6,0.6h-12.5
			c-0.6,0-1.2-0.2-1.6-0.7s-0.7-1-0.7-1.6v-21.5c0-0.6,0.2-1.2,0.7-1.6c0.4-0.4,1-0.7,1.6-0.7h12.5c0.6,0,1.2,0.2,1.6,0.6
			c0.4,0.4,0.7,0.9,0.7,1.6c0,0.6-0.2,1.1-0.6,1.5c-0.4,0.4-1,0.6-1.6,0.6h-10.1v6.3h8.4c0.6,0,1.2,0.2,1.6,0.6
			c0.4,0.4,0.7,0.9,0.7,1.6c0,0.6-0.2,1.1-0.6,1.5c-0.4,0.4-1,0.6-1.6,0.6h-8.4v6.9h10.1C166,139.2,166.6,139.4,167,139.9z"/>
	</g>
</g>
</svg>
