<?xml version="1.0" encoding="utf-8"?>
<!-- Generator: Adobe Illustrator 22.0.1, SVG Export Plug-In . SVG Version: 6.00 Build 0)  -->
<svg version="1.1" id="Laag_1" xmlns="http://www.w3.org/2000/svg" xmlns:xlink="http://www.w3.org/1999/xlink" x="0px" y="0px"
	 viewBox="0 0 207.3 205.9" style="enable-background:new 0 0 207.3 205.9;" xml:space="preserve">
<style type="text/css">
	.st0{fill:#A9BF59;}
	.st1{fill:none;stroke:#A9BF59;stroke-width:3.1405;stroke-linecap:round;stroke-linejoin:round;stroke-miterlimit:10;}
	.st2{fill:none;stroke:#FFFFFF;stroke-width:3.1405;stroke-linecap:round;stroke-linejoin:round;stroke-miterlimit:10;}
	.st3{fill:#FFFFFF;}
	.st4{opacity:0.77;}
	.st5{fill:#A0C050;}
	.st6{fill:#7E9840;}
	.st7{fill:none;stroke:#7E9840;stroke-width:0.75;stroke-linecap:round;stroke-miterlimit:10;}
	.st8{fill:none;stroke:#7E9840;stroke-width:0.75;stroke-linecap:round;stroke-miterlimit:10;stroke-dasharray:1.9882,1.9882;}
	.st9{fill:none;stroke:#7E9840;stroke-width:0.75;stroke-linecap:round;stroke-miterlimit:10;stroke-dasharray:1.9844,1.9844;}
	.st10{fill:#FFFFFF;stroke:#000000;stroke-width:0.7845;stroke-miterlimit:10;}
	.st11{fill:none;stroke:#A0C050;stroke-width:2.4637;stroke-linecap:round;stroke-linejoin:round;stroke-miterlimit:10;}
	.st12{fill:none;stroke:#FFFFFF;stroke-width:2.4637;stroke-linecap:round;stroke-linejoin:round;stroke-miterlimit:10;}
	.st13{fill:none;stroke:#FFFFFF;stroke-width:4.2133;stroke-linecap:round;stroke-linejoin:round;stroke-miterlimit:10;}
	.st14{fill:none;stroke:#7E9840;stroke-width:1.0062;stroke-linecap:round;stroke-miterlimit:10;}
	.st15{fill:none;stroke:#7E9840;stroke-width:1.0062;stroke-linecap:round;stroke-miterlimit:10;stroke-dasharray:2.6673,2.6673;}
	.st16{fill:none;stroke:#7E9840;stroke-width:1.0062;stroke-linecap:round;stroke-miterlimit:10;stroke-dasharray:2.6623,2.6623;}
	.st17{fill:#FFFFFF;stroke:#000000;stroke-width:0.7798;stroke-miterlimit:10;}
	.st18{fill:none;stroke:#A0C050;stroke-width:3.3658;stroke-linecap:round;stroke-linejoin:round;stroke-miterlimit:10;}
	.st19{fill:none;stroke:#312783;stroke-width:2.4488;stroke-linecap:round;stroke-linejoin:round;stroke-miterlimit:10;}
	.st20{fill:#312783;}
	.st21{fill:none;stroke:#A0C050;stroke-width:2.4488;stroke-linecap:round;stroke-linejoin:round;stroke-miterlimit:10;}
	.st22{fill:none;stroke:#A0C050;stroke-width:1.5595;stroke-linecap:round;stroke-linejoin:round;stroke-miterlimit:10;}
	.st23{fill:none;stroke:#A0C050;stroke-width:2.4378;stroke-linecap:round;stroke-linejoin:round;stroke-miterlimit:10;}
	.st24{fill:#E94753;}
	.st25{fill:none;stroke:#A0C050;stroke-width:4.3165;stroke-linecap:round;stroke-linejoin:round;stroke-miterlimit:10;}
	.st26{fill:none;stroke:#A0C050;stroke-width:3.1615;stroke-linecap:round;stroke-linejoin:round;stroke-miterlimit:10;}
	.st27{fill:none;stroke:#951B81;stroke-width:3.1405;stroke-linecap:round;stroke-linejoin:round;stroke-miterlimit:10;}
	.st28{fill:#951B81;}
	.st29{fill:none;stroke:#A0C050;stroke-width:3.1391;stroke-linecap:round;stroke-linejoin:round;stroke-miterlimit:10;}
	.st30{fill:none;stroke:#A0C050;stroke-width:3.1405;stroke-linecap:round;stroke-linejoin:round;stroke-miterlimit:10;}
	.st31{fill:none;stroke:#A0C050;stroke-width:2;stroke-linecap:round;stroke-linejoin:round;stroke-miterlimit:10;}
</style>
<path class="st26" d="M125.1,90.3l11.4,11.4c7.7,7.7,7.7,20.2,0,27.9v0c-7.7,7.7-20.2,7.7-27.9,0l-5.8-5.8c-4.1,6.7-10,11.6-18,11.6
	l0,0c-10.9,0-19.8-8.8-19.8-19.8V55.4c0-10.9,8.8-19.8,19.8-19.8l0,0c8,0,13.6,5.4,18,11.6l5.8-5.8c7.7-7.7,20.2-7.7,27.9,0v0
	c7.7,7.7,7.7,20.2,0,27.9l-16.1,16.1c0,0-13.4,14.3-15.6,15.6c-1.7,1.1-3.7,1.7-5.8,1.7c-5.4-0.2-9.6-4.7-9.4-10.1
	c0.1-3.5,2.1-6.6,5-8.2c-2.8-1.8-4.5-5-4.4-8.5c0.2-5.4,4.7-9.6,10.1-9.4c2.2,0.1,4.1,0.9,5.7,2.1c1.5,1,6.1,7.2,10.1,11.6"/>
<g>
	<path class="st5" d="M71,170.8c-1.5,0-3.6-1.3-6.3-3.9l-4.4-4.4v0.2l0,7.6c0,1-0.4,1.4-1.3,1.4c-0.6,0-1-0.2-1.3-0.7
		c-0.3-0.4-0.4-0.8-0.4-1.3c0-2.3,0.1-5.7,0.2-10.2s0.2-7.9,0.2-10.2c0-0.4,0.1-0.8,0.4-1.1c0.3-0.3,0.6-0.4,1-0.4
		c0.4,0,0.8,0.1,1,0.4c0.3,0.3,0.4,0.6,0.4,1.1c0,0.9-0.1,2.4-0.2,4.4c-0.1,1.9-0.2,3.4-0.2,4.4c1.3-1.2,2.8-2.8,4.4-4.6l4.2-4.9
		c0.3-0.4,0.7-0.6,1.1-0.6c0.4,0,0.7,0.1,1,0.4c0.3,0.3,0.5,0.6,0.5,1.1c0,0.6-1.3,2.3-3.8,5.1c-1.7,1.9-3.5,3.7-5.4,5.6
		c1.2,1.2,3,3,5.5,5.3l1.5,1.3c0.6,0.4,1.2,0.7,1.8,1c0.8,0.3,1.2,0.7,1.2,1.4c0,0.3-0.1,0.6-0.3,0.9
		C71.8,170.6,71.4,170.8,71,170.8z"/>
	<path class="st5" d="M90.6,170.6c-0.9,0-1.7-1.1-2.3-3.4c-0.3-0.9-0.6-2.4-0.9-4.6c-1,0.1-2.3,0.4-3.9,0.7l-3.9,0.8
		c-0.5,1.3-1.3,3.1-2.5,5.6c-0.3,0.5-0.7,0.8-1.3,0.8c-0.4,0-0.7-0.1-1-0.4c-0.3-0.3-0.5-0.6-0.5-1c0-0.5,0.7-2.2,2.2-5.3
		c-0.2-0.3-0.2-0.5-0.2-0.9c0-0.8,0.5-1.3,1.4-1.5c1.1-2.1,2.5-4.5,4.2-7.2c2.3-3.7,3.7-5.5,4.3-5.5c0.8,0,1.3,0.5,1.6,1.6l0.9,4.9
		l2.2,10.1l0.8,2.3c0.3,0.8,0.4,1.3,0.4,1.6c0,0.4-0.2,0.8-0.5,1S91,170.6,90.6,170.6z M85.5,154l-4.2,6.7c1.2-0.3,3-0.7,5.3-1.1
		L85.5,154z"/>
	<path class="st5" d="M109.9,170.1c-1.5,1-3.7,1.5-6.5,1.5c-0.7,0-1.5-0.1-2.4-0.3c-1.1-0.3-1.9-0.6-2.5-1h-0.1
		c-0.4,0-0.8-0.1-1-0.4c-0.3-0.3-0.4-0.6-0.4-1.1c0-1,0-2.5,0.1-4.6c0.1-2,0.1-3.6,0.1-4.6c0-1.1,0-2.8-0.1-5.1c0-2.3-0.1-4-0.1-5.1
		c0-0.4,0.2-0.8,0.6-1.3c0.4-0.4,0.8-0.7,1.2-0.7c0.2,0,1,0.3,2.3,1c1.5,0.7,2.4,1.1,2.6,1.2c2.8,0.9,5.1,2.4,7,4.3
		c2.3,2.3,3.4,4.8,3.4,7.6c0,1.7-0.4,3.3-1.2,4.8C112.3,167.9,111.3,169.1,109.9,170.1z M106.9,154.7c-1-0.7-3.3-1.8-6.9-3.3
		l0.1,4.2l0,4.2l-0.2,8c0.1,0,0.2,0.1,0.3,0.2c0.9,0.6,1.9,0.9,3.2,0.9c2.2,0,3.8-0.3,4.8-1c0.9-0.6,1.7-1.5,2.2-2.6
		s0.8-2.2,0.8-3.4C111.4,159,109.9,156.6,106.9,154.7z"/>
	<path class="st5" d="M132,150.6c-0.1,0-0.3,0-0.5-0.1c-1.6-0.5-3.2-0.7-4.7-0.7c-0.8,0-1.7,0.1-2.6,0.2c-0.9,0.1-2,0.4-3,0.7
		c0.1,0.6,0.1,1.1,0.1,1.5c0,1.3-0.1,3.2-0.2,5.6l6.4-0.6c1.9-0.2,3-0.3,3.5-0.3c0.4,0,0.8,0.1,1.1,0.4c0.3,0.3,0.4,0.6,0.4,1.1
		c0,0.9-0.4,1.4-1.3,1.5l-3.5,0.3l-6.7,0.6c0,0.7-0.1,1.3-0.1,2s0,1.2,0,1.7c0,2.1,0.2,3.4,0.5,3.8c0.2,0.3,1,0.4,2.3,0.4
		c0.6,0,1.5,0,2.7-0.1s2.1-0.1,2.7-0.1c0.2,0,0.5,0,0.9-0.1s0.7-0.1,0.8-0.1c1,0,1.5,0.5,1.5,1.5c0,0.8-0.4,1.3-1.2,1.5
		c-0.9,0.2-2.9,0.3-5.9,0.3c-3,0-4.9-0.4-5.8-1.2c-0.9-0.9-1.4-2.9-1.4-6c0-0.6,0-1.3,0-2c0-0.7,0.1-1.5,0.1-2.4
		c-0.1-0.2-0.2-0.5-0.2-0.7c0-0.3,0.1-0.6,0.3-0.9c0.2-2.8,0.3-4.9,0.3-6.2c0-0.4,0-0.9-0.1-1.6c-0.1-0.7-0.1-1.2-0.1-1.6
		c0-1.2,0.5-1.7,1.5-1.7c0.4,0,0.8,0.1,1,0.4c1.2-0.3,2.3-0.5,3.3-0.7c1-0.2,2-0.2,2.9-0.2c2.4,0,4.2,0.3,5.7,0.8
		c0.7,0.3,1,0.7,1,1.4c0,0.4-0.1,0.7-0.4,1C132.8,150.4,132.4,150.6,132,150.6z"/>
	<path class="st5" d="M150.7,150.6c-0.1,0-0.3,0-0.5-0.1c-1.6-0.5-3.2-0.7-4.7-0.7c-0.8,0-1.7,0.1-2.6,0.2c-0.9,0.1-2,0.4-3,0.7
		c0.1,0.6,0.1,1.1,0.1,1.5c0,1.3-0.1,3.2-0.2,5.6l6.4-0.6c1.9-0.2,3-0.3,3.5-0.3c0.4,0,0.8,0.1,1.1,0.4c0.3,0.3,0.4,0.6,0.4,1.1
		c0,0.9-0.4,1.4-1.3,1.5l-3.5,0.3l-6.7,0.6c0,0.7-0.1,1.3-0.1,2s0,1.2,0,1.7c0,2.1,0.2,3.4,0.5,3.8c0.2,0.3,1,0.4,2.3,0.4
		c0.6,0,1.5,0,2.7-0.1s2.1-0.1,2.7-0.1c0.2,0,0.5,0,0.9-0.1s0.7-0.1,0.8-0.1c1,0,1.5,0.5,1.5,1.5c0,0.8-0.4,1.3-1.2,1.5
		c-0.9,0.2-2.9,0.3-5.9,0.3c-3,0-4.9-0.4-5.8-1.2c-0.9-0.9-1.4-2.9-1.4-6c0-0.6,0-1.3,0-2c0-0.7,0.1-1.5,0.1-2.4
		c-0.1-0.2-0.2-0.5-0.2-0.7c0-0.3,0.1-0.6,0.3-0.9c0.2-2.8,0.3-4.9,0.3-6.2c0-0.4,0-0.9-0.1-1.6c-0.1-0.7-0.1-1.2-0.1-1.6
		c0-1.2,0.5-1.7,1.5-1.7c0.4,0,0.8,0.1,1,0.4c1.2-0.3,2.3-0.5,3.3-0.7c1-0.2,2-0.2,2.9-0.2c2.4,0,4.2,0.3,5.7,0.8
		c0.7,0.3,1,0.7,1,1.4c0,0.4-0.1,0.7-0.4,1C151.4,150.4,151.1,150.6,150.7,150.6z"/>
</g>
</svg>
