<?xml version="1.0" encoding="utf-8"?>
<!-- Generator: Adobe Illustrator 22.0.1, SVG Export Plug-In . SVG Version: 6.00 Build 0)  -->
<svg version="1.1" id="Laag_1" xmlns="http://www.w3.org/2000/svg" xmlns:xlink="http://www.w3.org/1999/xlink" x="0px" y="0px"
	 viewBox="0 0 207.3 205.9" style="enable-background:new 0 0 207.3 205.9;" xml:space="preserve">
<style type="text/css">
	.st0{fill:#A9BF59;}
	.st1{fill:none;stroke:#A9BF59;stroke-width:3.1405;stroke-linecap:round;stroke-linejoin:round;stroke-miterlimit:10;}
	.st2{fill:none;stroke:#FFFFFF;stroke-width:3.1405;stroke-linecap:round;stroke-linejoin:round;stroke-miterlimit:10;}
	.st3{fill:#FFFFFF;}
	.st4{opacity:0.77;}
	.st5{fill:#A0C050;}
	.st6{fill:#7E9840;}
	.st7{fill:none;stroke:#7E9840;stroke-width:0.75;stroke-linecap:round;stroke-miterlimit:10;}
	.st8{fill:none;stroke:#7E9840;stroke-width:0.75;stroke-linecap:round;stroke-miterlimit:10;stroke-dasharray:1.9882,1.9882;}
	.st9{fill:none;stroke:#7E9840;stroke-width:0.75;stroke-linecap:round;stroke-miterlimit:10;stroke-dasharray:1.9844,1.9844;}
	.st10{fill:#FFFFFF;stroke:#000000;stroke-width:0.7845;stroke-miterlimit:10;}
	.st11{fill:none;stroke:#A0C050;stroke-width:2.4637;stroke-linecap:round;stroke-linejoin:round;stroke-miterlimit:10;}
	.st12{fill:none;stroke:#FFFFFF;stroke-width:2.4637;stroke-linecap:round;stroke-linejoin:round;stroke-miterlimit:10;}
	.st13{fill:none;stroke:#FFFFFF;stroke-width:4.2133;stroke-linecap:round;stroke-linejoin:round;stroke-miterlimit:10;}
	.st14{fill:none;stroke:#7E9840;stroke-width:1.0062;stroke-linecap:round;stroke-miterlimit:10;}
	.st15{fill:none;stroke:#7E9840;stroke-width:1.0062;stroke-linecap:round;stroke-miterlimit:10;stroke-dasharray:2.6673,2.6673;}
	.st16{fill:none;stroke:#7E9840;stroke-width:1.0062;stroke-linecap:round;stroke-miterlimit:10;stroke-dasharray:2.6623,2.6623;}
	.st17{fill:#FFFFFF;stroke:#000000;stroke-width:0.7798;stroke-miterlimit:10;}
	.st18{fill:none;stroke:#A0C050;stroke-width:3.3658;stroke-linecap:round;stroke-linejoin:round;stroke-miterlimit:10;}
	.st19{fill:none;stroke:#312783;stroke-width:2.4488;stroke-linecap:round;stroke-linejoin:round;stroke-miterlimit:10;}
	.st20{fill:#312783;}
	.st21{fill:none;stroke:#A0C050;stroke-width:2.4488;stroke-linecap:round;stroke-linejoin:round;stroke-miterlimit:10;}
	.st22{fill:none;stroke:#A0C050;stroke-width:1.5595;stroke-linecap:round;stroke-linejoin:round;stroke-miterlimit:10;}
	.st23{fill:none;stroke:#A0C050;stroke-width:2.4378;stroke-linecap:round;stroke-linejoin:round;stroke-miterlimit:10;}
	.st24{fill:#E94753;}
	.st25{fill:none;stroke:#A0C050;stroke-width:4.3165;stroke-linecap:round;stroke-linejoin:round;stroke-miterlimit:10;}
	.st26{fill:none;stroke:#A0C050;stroke-width:3.1615;stroke-linecap:round;stroke-linejoin:round;stroke-miterlimit:10;}
	.st27{fill:none;stroke:#951B81;stroke-width:3.1405;stroke-linecap:round;stroke-linejoin:round;stroke-miterlimit:10;}
	.st28{fill:#951B81;}
	.st29{fill:none;stroke:#A0C050;stroke-width:3.1391;stroke-linecap:round;stroke-linejoin:round;stroke-miterlimit:10;}
	.st30{fill:none;stroke:#A0C050;stroke-width:3.1405;stroke-linecap:round;stroke-linejoin:round;stroke-miterlimit:10;}
	.st31{fill:none;stroke:#A0C050;stroke-width:2;stroke-linecap:round;stroke-linejoin:round;stroke-miterlimit:10;}
</style>
<g>
	<path class="st29" d="M108.2,76.9l16,0c10.8,0,19.6,8.8,19.6,19.6l0,0c0,10.8-8.8,19.6-19.6,19.6h-8.2c1.8,7.6,1.1,15.2-4.5,20.8
		l0,0c-7.7,7.7-20.1,7.7-27.7,0L41.6,94.6c-7.7-7.7-7.7-20.1,0-27.7l0,0c5.6-5.6,13.4-5.7,20.8-4.5v-8.2c0-10.8,8.8-19.6,19.6-19.6
		l0,0c10.8,0,19.6,8.8,19.6,19.6l0,22.7c0,0,0.6,19.5,0,21.9c-0.4,1.9-1.3,3.8-2.9,5.2c-3.9,3.6-10,3.4-13.7-0.5
		c-2.4-2.6-3.1-6.1-2.2-9.3c-3.2,0.7-6.7-0.3-9.1-2.9c-3.6-3.9-3.4-10,0.5-13.7c1.6-1.5,3.5-2.3,5.5-2.5c1.8-0.3,9.4,0.8,15.2,1"/>
	<g>
		<path class="st5" d="M124.5,161.7c0.2,0.1,0.3,0.2,0.4,0.3c0.3,0.3,0.4,0.6,0.4,1c0,0.4-0.2,0.8-0.5,1c-0.1,0.1-0.3,0.2-0.5,0.3
			c-0.2,0.1-0.4,0.1-0.6,0l-8-1.1l-0.1,3l2.5,2.5c0.3,0.3,0.4,0.6,0.4,1c0,0.4-0.2,0.7-0.5,1c-0.3,0.3-0.6,0.4-1,0.4
			c-0.4,0-0.7-0.1-1-0.4l-9.2-9.2c-0.3-0.3-0.4-0.6-0.4-1c0-0.4,0.2-0.7,0.5-1c0.3-0.3,0.6-0.4,1-0.4c0.4,0,0.7,0.1,1,0.4l4.3,4.3
			l0.1-10.1c0-0.5,0.1-0.9,0.4-1.1c0.2-0.2,0.6-0.4,0.9-0.3c0.4,0,0.7,0.2,0.9,0.4c0.2,0.2,0.3,0.5,0.3,0.9l-0.2,6.8l8.3,1.1
			C124.2,161.6,124.3,161.6,124.5,161.7z"/>
		<path class="st5" d="M137.2,150.1c0.3,0.3,0.4,0.6,0.4,0.9c0,0.4-0.1,0.7-0.4,0.9c-0.2,0.2-0.4,0.3-0.7,0.3c-0.3,0-0.6,0-0.8-0.1
			l-2.8-1.1l-4.8,4.8l1.1,2.8c0.1,0.3,0.2,0.5,0.1,0.8c0,0.3-0.2,0.5-0.3,0.7c-0.3,0.3-0.6,0.4-0.9,0.4c-0.3,0-0.6-0.1-0.8-0.4
			c-0.1-0.1-0.2-0.2-0.3-0.4l-5.6-13.5c-0.1-0.3-0.2-0.6-0.1-0.9c0.1-0.3,0.2-0.5,0.4-0.7c0.2-0.2,0.4-0.3,0.7-0.4
			c0.3-0.1,0.6,0,0.8,0.1l13.3,5.4C136.9,149.8,137,149.9,137.2,150.1z M127.1,153.1l3.2-3.2l-5.3-2.1L127.1,153.1z"/>
		<path class="st5" d="M137.9,130.2c1.2-0.2,2.4-0.1,3.6,0.4c1.2,0.5,2.4,1.2,3.4,2.3c1,1,1.8,2.2,2.3,3.4c0.5,1.2,0.6,2.4,0.4,3.6
			c-0.2,1.2-0.8,2.3-1.8,3.3l-3.8,3.8c-0.3,0.3-0.6,0.4-1,0.4s-0.7-0.1-1-0.4l-9.2-9.2c-0.3-0.3-0.4-0.6-0.4-1c0-0.4,0.1-0.7,0.4-1
			l3.8-3.8C135.6,131,136.7,130.4,137.9,130.2z M144.8,138.3c-0.2-1.2-0.9-2.3-2-3.4c-1.1-1.1-2.2-1.7-3.4-2
			c-1.2-0.2-2.3,0.1-3.2,1.1l-2.6,2.6l7.5,7.5l2.6-2.6C144.7,140.6,145.1,139.5,144.8,138.3z"/>
		<path class="st5" d="M159.4,126.4c0.4,0,0.7,0.1,0.9,0.4c0.3,0.3,0.4,0.6,0.4,0.9c0,0.4-0.2,0.7-0.4,0.9l-5.3,5.3
			c-0.3,0.3-0.6,0.4-1,0.4s-0.7-0.1-1-0.4l-9.2-9.2c-0.3-0.3-0.4-0.6-0.4-1c0-0.4,0.1-0.7,0.4-1l5.3-5.3c0.3-0.3,0.6-0.4,1-0.4
			c0.4,0,0.7,0.1,1,0.4c0.3,0.3,0.4,0.6,0.4,0.9c0,0.3-0.2,0.7-0.5,0.9l-4.3,4.3l2.7,2.7l3.6-3.6c0.3-0.3,0.6-0.4,1-0.4
			c0.4,0,0.7,0.1,1,0.4c0.3,0.3,0.4,0.6,0.4,0.9c0,0.3-0.2,0.7-0.5,0.9l-3.6,3.6l2.9,2.9l4.3-4.3C158.7,126.6,159,126.4,159.4,126.4
			z"/>
		<path class="st5" d="M170.1,115.7c0.4,0,0.7,0.1,0.9,0.4c0.3,0.3,0.4,0.6,0.4,0.9c0,0.4-0.2,0.7-0.4,0.9l-5.3,5.3
			c-0.3,0.3-0.6,0.4-1,0.4c-0.4,0-0.7-0.1-1-0.4l-9.2-9.2c-0.3-0.3-0.4-0.6-0.4-1c0-0.4,0.1-0.7,0.4-1l5.3-5.3
			c0.3-0.3,0.6-0.4,1-0.4c0.4,0,0.7,0.1,1,0.4c0.3,0.3,0.4,0.6,0.4,0.9c0,0.3-0.2,0.7-0.5,0.9l-4.3,4.3l2.7,2.7l3.6-3.6
			c0.3-0.3,0.6-0.4,1-0.4c0.4,0,0.7,0.1,1,0.4c0.3,0.3,0.4,0.6,0.4,0.9c0,0.3-0.2,0.7-0.5,0.9l-3.6,3.6l2.9,2.9l4.3-4.3
			C169.4,115.8,169.7,115.7,170.1,115.7z"/>
	</g>
</g>
</svg>
