<?xml version="1.0" encoding="utf-8"?>
<!-- Generator: Adobe Illustrator 22.0.1, SVG Export Plug-In . SVG Version: 6.00 Build 0)  -->
<svg version="1.1" id="Laag_1" xmlns="http://www.w3.org/2000/svg" xmlns:xlink="http://www.w3.org/1999/xlink" x="0px" y="0px"
	 viewBox="0 0 207.3 205.9" style="enable-background:new 0 0 207.3 205.9;" xml:space="preserve">
<style type="text/css">
	.st0{fill:#A9BF59;}
	.st1{fill:none;stroke:#A9BF59;stroke-width:3.1405;stroke-linecap:round;stroke-linejoin:round;stroke-miterlimit:10;}
	.st2{fill:none;stroke:#FFFFFF;stroke-width:3.1405;stroke-linecap:round;stroke-linejoin:round;stroke-miterlimit:10;}
	.st3{fill:#FFFFFF;}
	.st4{opacity:0.77;}
	.st5{fill:#A0C050;}
	.st6{fill:#7E9840;}
	.st7{fill:none;stroke:#7E9840;stroke-width:0.75;stroke-linecap:round;stroke-miterlimit:10;}
	.st8{fill:none;stroke:#7E9840;stroke-width:0.75;stroke-linecap:round;stroke-miterlimit:10;stroke-dasharray:1.9882,1.9882;}
	.st9{fill:none;stroke:#7E9840;stroke-width:0.75;stroke-linecap:round;stroke-miterlimit:10;stroke-dasharray:1.9844,1.9844;}
	.st10{fill:#FFFFFF;stroke:#000000;stroke-width:0.7845;stroke-miterlimit:10;}
	.st11{fill:none;stroke:#A0C050;stroke-width:2.4637;stroke-linecap:round;stroke-linejoin:round;stroke-miterlimit:10;}
	.st12{fill:none;stroke:#FFFFFF;stroke-width:2.4637;stroke-linecap:round;stroke-linejoin:round;stroke-miterlimit:10;}
	.st13{fill:none;stroke:#FFFFFF;stroke-width:4.2133;stroke-linecap:round;stroke-linejoin:round;stroke-miterlimit:10;}
	.st14{fill:none;stroke:#7E9840;stroke-width:1.0062;stroke-linecap:round;stroke-miterlimit:10;}
	.st15{fill:none;stroke:#7E9840;stroke-width:1.0062;stroke-linecap:round;stroke-miterlimit:10;stroke-dasharray:2.6673,2.6673;}
	.st16{fill:none;stroke:#7E9840;stroke-width:1.0062;stroke-linecap:round;stroke-miterlimit:10;stroke-dasharray:2.6623,2.6623;}
	.st17{fill:#FFFFFF;stroke:#000000;stroke-width:0.7798;stroke-miterlimit:10;}
	.st18{fill:none;stroke:#A0C050;stroke-width:3.3658;stroke-linecap:round;stroke-linejoin:round;stroke-miterlimit:10;}
	.st19{fill:none;stroke:#312783;stroke-width:2.4488;stroke-linecap:round;stroke-linejoin:round;stroke-miterlimit:10;}
	.st20{fill:#312783;}
	.st21{fill:none;stroke:#A0C050;stroke-width:2.4488;stroke-linecap:round;stroke-linejoin:round;stroke-miterlimit:10;}
	.st22{fill:none;stroke:#A0C050;stroke-width:1.5595;stroke-linecap:round;stroke-linejoin:round;stroke-miterlimit:10;}
	.st23{fill:none;stroke:#A0C050;stroke-width:2.4378;stroke-linecap:round;stroke-linejoin:round;stroke-miterlimit:10;}
	.st24{fill:#E94753;}
	.st25{fill:none;stroke:#A0C050;stroke-width:4.3165;stroke-linecap:round;stroke-linejoin:round;stroke-miterlimit:10;}
	.st26{fill:none;stroke:#A0C050;stroke-width:3.1615;stroke-linecap:round;stroke-linejoin:round;stroke-miterlimit:10;}
	.st27{fill:none;stroke:#951B81;stroke-width:3.1405;stroke-linecap:round;stroke-linejoin:round;stroke-miterlimit:10;}
	.st28{fill:#951B81;}
	.st29{fill:none;stroke:#A0C050;stroke-width:3.1391;stroke-linecap:round;stroke-linejoin:round;stroke-miterlimit:10;}
	.st30{fill:none;stroke:#A0C050;stroke-width:3.1405;stroke-linecap:round;stroke-linejoin:round;stroke-miterlimit:10;}
	.st31{fill:none;stroke:#A0C050;stroke-width:2;stroke-linecap:round;stroke-linejoin:round;stroke-miterlimit:10;}
</style>
<g>
	<path class="st30" d="M125.5,93.3l11.3,11.3c7.7,7.7,7.7,20.1,0,27.8v0c-7.7,7.7-20.1,7.7-27.8,0l-5.8-5.8
		c-4.1,6.6-9.9,11.5-17.9,11.5l0,0c-10.8,0-19.6-8.8-19.6-19.6V58.7c0-10.8,8.8-19.6,19.6-19.6l0,0c7.9,0,13.5,5.4,17.9,11.5
		l5.8-5.8c7.7-7.7,20.1-7.7,27.8,0v0c7.7,7.7,7.7,20.1,0,27.8l-16,16c0,0-13.3,14.2-15.5,15.5c-1.6,1.1-3.6,1.7-5.8,1.7
		c-5.3-0.2-9.5-4.7-9.3-10c0.1-3.5,2.1-6.5,5-8.1c-2.7-1.8-4.5-4.9-4.4-8.4c0.2-5.3,4.7-9.5,10-9.3c2.2,0.1,4.1,0.9,5.7,2.1
		c1.5,1,6.1,7.2,10.1,11.5"/>
	<g>
		<path class="st5" d="M77,164.8c0.1,0.2,0.1,0.3,0.1,0.5c0,0.4-0.2,0.7-0.5,1c-0.3,0.3-0.7,0.4-1.1,0.4c-0.2,0-0.4,0-0.6-0.1
			s-0.3-0.2-0.5-0.4l-4.9-6.4l-2.1,2.1v3.5c0,0.4-0.1,0.7-0.4,1c-0.3,0.3-0.6,0.4-1,0.4c-0.4,0-0.7-0.1-1-0.4
			c-0.3-0.3-0.4-0.6-0.4-1v-13c0-0.4,0.1-0.7,0.4-1c0.3-0.3,0.6-0.4,1-0.4c0.4,0,0.7,0.1,1,0.4c0.3,0.3,0.4,0.6,0.4,1v6.1l7.2-7.1
			c0.3-0.3,0.7-0.5,1.1-0.5c0.3,0,0.6,0.1,0.9,0.4c0.2,0.3,0.4,0.6,0.4,0.9c0,0.3-0.1,0.6-0.4,0.9l-4.9,4.7l5,6.7
			C76.9,164.5,76.9,164.6,77,164.8z"/>
		<path class="st5" d="M94.2,165.5c0,0.4-0.1,0.7-0.4,1c-0.3,0.2-0.5,0.4-0.9,0.4c-0.3,0-0.5-0.1-0.7-0.2c-0.2-0.2-0.4-0.4-0.5-0.7
			l-1.2-2.7h-6.7l-1.2,2.8c-0.1,0.3-0.3,0.5-0.5,0.7c-0.2,0.2-0.5,0.2-0.7,0.2c-0.4,0-0.7-0.1-0.9-0.3c-0.2-0.2-0.3-0.5-0.3-0.9
			c0-0.1,0-0.3,0.1-0.4l5.6-13.5c0.1-0.3,0.3-0.5,0.5-0.7s0.5-0.2,0.8-0.2c0.3,0,0.5,0.1,0.8,0.2c0.2,0.2,0.4,0.4,0.5,0.7l5.5,13.2
			C94.2,165.1,94.2,165.3,94.2,165.5z M84.9,160.6h4.5l-2.3-5.3L84.9,160.6z"/>
		<path class="st5" d="M108.8,152c1,0.7,1.8,1.6,2.3,2.8c0.5,1.2,0.8,2.5,0.8,4c0,1.5-0.3,2.8-0.8,4c-0.5,1.2-1.3,2.1-2.3,2.8
			c-1,0.7-2.2,1-3.6,1h-5.4c-0.4,0-0.7-0.1-1-0.4s-0.4-0.6-0.4-1v-13c0-0.4,0.1-0.7,0.4-1c0.3-0.3,0.6-0.4,1-0.4h5.4
			C106.6,150.9,107.8,151.3,108.8,152z M108,162.6c0.7-1,1-2.3,1-3.8c0-1.5-0.3-2.8-1-3.8c-0.7-1-1.7-1.5-3-1.5h-3.7v10.6h3.7
			C106.3,164.1,107.3,163.6,108,162.6z"/>
		<path class="st5" d="M126.7,164.5c0.3,0.3,0.4,0.6,0.4,0.9c0,0.4-0.1,0.7-0.4,0.9c-0.3,0.2-0.6,0.4-1,0.4h-7.6
			c-0.4,0-0.7-0.1-1-0.4c-0.3-0.3-0.4-0.6-0.4-1v-13c0-0.4,0.1-0.7,0.4-1c0.3-0.3,0.6-0.4,1-0.4h7.6c0.4,0,0.7,0.1,1,0.4
			c0.3,0.2,0.4,0.6,0.4,1c0,0.4-0.1,0.7-0.4,0.9c-0.3,0.2-0.6,0.3-1,0.3h-6.1v3.8h5.1c0.4,0,0.7,0.1,1,0.4c0.3,0.2,0.4,0.6,0.4,1
			c0,0.4-0.1,0.7-0.4,0.9c-0.3,0.2-0.6,0.3-1,0.3h-5.1v4.2h6.1C126.1,164.1,126.4,164.2,126.7,164.5z"/>
		<path class="st5" d="M141.8,164.5c0.3,0.3,0.4,0.6,0.4,0.9c0,0.4-0.1,0.7-0.4,0.9c-0.3,0.2-0.6,0.4-1,0.4h-7.6
			c-0.4,0-0.7-0.1-1-0.4c-0.3-0.3-0.4-0.6-0.4-1v-13c0-0.4,0.1-0.7,0.4-1c0.3-0.3,0.6-0.4,1-0.4h7.6c0.4,0,0.7,0.1,1,0.4
			c0.3,0.2,0.4,0.6,0.4,1c0,0.4-0.1,0.7-0.4,0.9c-0.3,0.2-0.6,0.3-1,0.3h-6.1v3.8h5.1c0.4,0,0.7,0.1,1,0.4c0.3,0.2,0.4,0.6,0.4,1
			c0,0.4-0.1,0.7-0.4,0.9c-0.3,0.2-0.6,0.3-1,0.3h-5.1v4.2h6.1C141.2,164.1,141.6,164.2,141.8,164.5z"/>
	</g>
</g>
</svg>
