<?xml version="1.0" encoding="utf-8"?>
<!-- Generator: Adobe Illustrator 22.0.1, SVG Export Plug-In . SVG Version: 6.00 Build 0)  -->
<svg version="1.1" id="Laag_1" xmlns="http://www.w3.org/2000/svg" xmlns:xlink="http://www.w3.org/1999/xlink" x="0px" y="0px"
	 viewBox="0 0 207.3 205.9" style="enable-background:new 0 0 207.3 205.9;" xml:space="preserve">
<style type="text/css">
	.st0{fill:#A9BF59;}
	.st1{fill:none;stroke:#A9BF59;stroke-width:3.1405;stroke-linecap:round;stroke-linejoin:round;stroke-miterlimit:10;}
	.st2{fill:none;stroke:#FFFFFF;stroke-width:3.1405;stroke-linecap:round;stroke-linejoin:round;stroke-miterlimit:10;}
	.st3{fill:#FFFFFF;}
	.st4{opacity:0.77;}
	.st5{fill:#A0C050;}
	.st6{fill:#7E9840;}
	.st7{fill:none;stroke:#7E9840;stroke-width:0.75;stroke-linecap:round;stroke-miterlimit:10;}
	.st8{fill:none;stroke:#7E9840;stroke-width:0.75;stroke-linecap:round;stroke-miterlimit:10;stroke-dasharray:1.9882,1.9882;}
	.st9{fill:none;stroke:#7E9840;stroke-width:0.75;stroke-linecap:round;stroke-miterlimit:10;stroke-dasharray:1.9844,1.9844;}
	.st10{fill:#FFFFFF;stroke:#000000;stroke-width:0.7845;stroke-miterlimit:10;}
	.st11{fill:none;stroke:#A0C050;stroke-width:2.4637;stroke-linecap:round;stroke-linejoin:round;stroke-miterlimit:10;}
	.st12{fill:none;stroke:#FFFFFF;stroke-width:2.4637;stroke-linecap:round;stroke-linejoin:round;stroke-miterlimit:10;}
	.st13{fill:none;stroke:#FFFFFF;stroke-width:4.2133;stroke-linecap:round;stroke-linejoin:round;stroke-miterlimit:10;}
	.st14{fill:none;stroke:#7E9840;stroke-width:1.0062;stroke-linecap:round;stroke-miterlimit:10;}
	.st15{fill:none;stroke:#7E9840;stroke-width:1.0062;stroke-linecap:round;stroke-miterlimit:10;stroke-dasharray:2.6673,2.6673;}
	.st16{fill:none;stroke:#7E9840;stroke-width:1.0062;stroke-linecap:round;stroke-miterlimit:10;stroke-dasharray:2.6623,2.6623;}
	.st17{fill:#FFFFFF;stroke:#000000;stroke-width:0.7798;stroke-miterlimit:10;}
	.st18{fill:none;stroke:#A0C050;stroke-width:3.3658;stroke-linecap:round;stroke-linejoin:round;stroke-miterlimit:10;}
	.st19{fill:none;stroke:#312783;stroke-width:2.4488;stroke-linecap:round;stroke-linejoin:round;stroke-miterlimit:10;}
	.st20{fill:#312783;}
	.st21{fill:none;stroke:#A0C050;stroke-width:2.4488;stroke-linecap:round;stroke-linejoin:round;stroke-miterlimit:10;}
	.st22{fill:none;stroke:#A0C050;stroke-width:1.5595;stroke-linecap:round;stroke-linejoin:round;stroke-miterlimit:10;}
	.st23{fill:none;stroke:#A0C050;stroke-width:2.4378;stroke-linecap:round;stroke-linejoin:round;stroke-miterlimit:10;}
	.st24{fill:#E94753;}
	.st25{fill:none;stroke:#A0C050;stroke-width:4.3165;stroke-linecap:round;stroke-linejoin:round;stroke-miterlimit:10;}
	.st26{fill:none;stroke:#A0C050;stroke-width:3.1615;stroke-linecap:round;stroke-linejoin:round;stroke-miterlimit:10;}
	.st27{fill:none;stroke:#951B81;stroke-width:3.1405;stroke-linecap:round;stroke-linejoin:round;stroke-miterlimit:10;}
	.st28{fill:#951B81;}
	.st29{fill:none;stroke:#A0C050;stroke-width:3.1391;stroke-linecap:round;stroke-linejoin:round;stroke-miterlimit:10;}
	.st30{fill:none;stroke:#A0C050;stroke-width:3.1405;stroke-linecap:round;stroke-linejoin:round;stroke-miterlimit:10;}
	.st31{fill:none;stroke:#A0C050;stroke-width:2;stroke-linecap:round;stroke-linejoin:round;stroke-miterlimit:10;}
</style>
<g>
	<path class="st30" d="M141.7,107.6L153,119c7.7,7.7,7.7,20.1,0,27.8v0c-7.7,7.7-20.1,7.7-27.8,0l-5.8-5.8
		c-4.1,6.6-9.9,11.5-17.9,11.5l0,0c-10.8,0-19.6-8.8-19.6-19.6V73c0-10.8,8.8-19.6,19.6-19.6l0,0c7.9,0,13.5,5.4,17.9,11.5l5.8-5.8
		c7.7-7.7,20.1-7.7,27.8,0v0c7.7,7.7,7.7,20.1,0,27.8l-16,16c0,0-13.3,14.2-15.5,15.5c-1.6,1.1-3.6,1.7-5.8,1.7
		c-5.3-0.2-9.5-4.7-9.3-10c0.1-3.5,2.1-6.5,5-8.1c-2.7-1.8-4.5-4.9-4.4-8.4c0.2-5.3,4.7-9.5,10-9.3c2.2,0.1,4.1,0.9,5.7,2.1
		c1.5,1,6.1,7.2,10.1,11.5"/>
	<g>
		<path class="st5" d="M66.3,136.8c0.2-0.1,0.4-0.1,0.6-0.1c0.5,0,0.9,0.2,1.3,0.6c0.3,0.4,0.5,0.8,0.5,1.4c0,0.2-0.1,0.5-0.2,0.7
			c-0.1,0.2-0.3,0.4-0.5,0.6l-8.2,6.2l2.6,2.7H67c0.5,0,0.9,0.2,1.3,0.5c0.3,0.3,0.5,0.8,0.5,1.3c0,0.5-0.2,0.9-0.5,1.3
			c-0.3,0.3-0.8,0.5-1.3,0.5H50.4c-0.5,0-0.9-0.2-1.3-0.5c-0.3-0.3-0.5-0.8-0.5-1.3c0-0.5,0.2-0.9,0.5-1.3s0.7-0.5,1.3-0.5h7.8
			l-9.1-9.2c-0.4-0.4-0.7-0.9-0.7-1.4c0-0.4,0.2-0.8,0.5-1.1c0.4-0.3,0.7-0.5,1.1-0.5c0.4,0,0.8,0.2,1.1,0.5l6,6.3l8.5-6.4
			C65.9,136.9,66.1,136.8,66.3,136.8z"/>
		<path class="st5" d="M67.2,114.8c0.5,0,0.9,0.2,1.2,0.5c0.3,0.3,0.5,0.7,0.5,1.1c0,0.3-0.1,0.7-0.3,0.9c-0.2,0.3-0.5,0.5-0.9,0.6
			l-3.5,1.5v8.6l3.5,1.5c0.4,0.1,0.6,0.3,0.8,0.6c0.2,0.3,0.3,0.6,0.3,0.9c0,0.5-0.1,0.9-0.4,1.1c-0.3,0.3-0.6,0.4-1.1,0.4
			c-0.2,0-0.4,0-0.5-0.1l-17.2-7.2c-0.4-0.2-0.7-0.4-0.9-0.7c-0.2-0.3-0.3-0.7-0.3-1c0-0.3,0.1-0.7,0.3-1c0.2-0.3,0.5-0.5,0.8-0.6
			l16.9-7.1C66.8,114.9,67,114.8,67.2,114.8z M60.9,126.7v-5.8l-6.7,2.9L60.9,126.7z"/>
		<path class="st5" d="M50,96.2c0.9-1.3,2.1-2.3,3.6-3c1.5-0.7,3.2-1,5.1-1c1.9,0,3.6,0.3,5.1,1c1.5,0.7,2.7,1.7,3.6,3
			c0.9,1.3,1.3,2.8,1.3,4.6v6.9c0,0.5-0.2,0.9-0.5,1.3c-0.3,0.3-0.8,0.5-1.3,0.5H50.4c-0.5,0-0.9-0.2-1.3-0.5
			c-0.3-0.3-0.5-0.8-0.5-1.3v-6.9C48.6,99.1,49.1,97.5,50,96.2z M63.5,97.3c-1.3-0.9-2.9-1.3-4.8-1.3c-2,0-3.6,0.4-4.8,1.3
			c-1.3,0.9-1.9,2.2-1.9,3.9v4.7h13.5v-4.7C65.5,99.4,64.8,98.1,63.5,97.3z"/>
		<path class="st5" d="M66,73.4c0.3-0.3,0.7-0.5,1.2-0.5c0.5,0,0.9,0.2,1.2,0.5c0.3,0.3,0.5,0.8,0.5,1.3v9.6c0,0.5-0.2,0.9-0.5,1.3
			c-0.3,0.3-0.8,0.5-1.3,0.5H50.4c-0.5,0-0.9-0.2-1.3-0.5c-0.3-0.3-0.5-0.8-0.5-1.3v-9.6c0-0.5,0.2-0.9,0.5-1.3
			c0.3-0.3,0.7-0.5,1.2-0.5c0.5,0,0.9,0.2,1.2,0.5c0.3,0.3,0.4,0.7,0.4,1.3v7.8h4.9V76c0-0.5,0.2-0.9,0.5-1.3
			c0.3-0.3,0.7-0.5,1.2-0.5c0.5,0,0.9,0.2,1.2,0.5c0.3,0.3,0.4,0.7,0.4,1.3v6.5h5.3v-7.8C65.5,74.2,65.6,73.7,66,73.4z"/>
		<path class="st5" d="M66,54.1c0.3-0.3,0.7-0.5,1.2-0.5c0.5,0,0.9,0.2,1.2,0.5c0.3,0.3,0.5,0.8,0.5,1.3V65c0,0.5-0.2,0.9-0.5,1.3
			c-0.3,0.3-0.8,0.5-1.3,0.5H50.4c-0.5,0-0.9-0.2-1.3-0.5c-0.3-0.3-0.5-0.8-0.5-1.3v-9.6c0-0.5,0.2-0.9,0.5-1.3
			c0.3-0.3,0.7-0.5,1.2-0.5c0.5,0,0.9,0.2,1.2,0.5c0.3,0.3,0.4,0.7,0.4,1.3v7.8h4.9v-6.5c0-0.5,0.2-0.9,0.5-1.3
			c0.3-0.3,0.7-0.5,1.2-0.5c0.5,0,0.9,0.2,1.2,0.5c0.3,0.3,0.4,0.7,0.4,1.3v6.5h5.3v-7.8C65.5,54.8,65.6,54.4,66,54.1z"/>
	</g>
</g>
</svg>
